<svg id="Layer_1" data-name="Layer 1" xmlns="http://www.w3.org/2000/svg" viewBox="0 0 293.14 78.49"><defs><style>.cls-1{fill:#6e4426;}.cls-2{fill:#8abcc6;}.cls-3{fill:#df7b3d;}.cls-4{fill:#543018;}</style></defs><title>coombs_ross_masthead-logo</title><path class="cls-1" d="M220.75,22.3c0,1.83.76,3.41,1.83,5.44a57.09,57.09,0,0,1,3,6,4.76,4.76,0,0,1,.25,1.42c0,2.24-2.24,3.15-3.71,3.15a3,3,0,0,1-2-.61,2.16,2.16,0,0,1-.2-1.22,3.67,3.67,0,0,0-.76-2.44,2,2,0,0,0-1.32-.66,1.91,1.91,0,0,0-1.78,2c0,1.58,1.57,4.68,5.79,4.68,5.39,0,7.67-4,7.67-7,0-2.19-.91-3.92-2.84-7.68-0.36-.66-0.71-1.27-1-1.93a7,7,0,0,1-1.07-3.15,2.69,2.69,0,0,1,2.85-2.49,1.81,1.81,0,0,1,1.83,1.07,13.47,13.47,0,0,1,.35,1.32,1.4,1.4,0,0,0,1.37,1.12,1.92,1.92,0,0,0,1.93-2c0-1.88-2.19-3.41-5-3.41-2.95,0-7.12,1.78-7.12,6.41m-15.91,0c0,1.83.76,3.41,1.83,5.44a57.21,57.21,0,0,1,2.95,6,4.77,4.77,0,0,1,.25,1.42c0,2.24-2.24,3.15-3.71,3.15a3,3,0,0,1-2-.61,2.16,2.16,0,0,1-.2-1.22,3.69,3.69,0,0,0-.76-2.44,2,2,0,0,0-1.32-.66,1.91,1.91,0,0,0-1.78,2c0,1.58,1.57,4.68,5.8,4.68,5.39,0,7.68-4,7.68-7,0-2.19-.92-3.92-2.85-7.68-0.36-.66-0.71-1.27-1-1.93a7.07,7.07,0,0,1-1.06-3.15,2.69,2.69,0,0,1,2.84-2.49,1.81,1.81,0,0,1,1.83,1.07,12.59,12.59,0,0,1,.36,1.32A1.4,1.4,0,0,0,215,21.33a1.92,1.92,0,0,0,1.93-2c0-1.88-2.19-3.41-5-3.41-2.95,0-7.12,1.78-7.12,6.41m-10.63-4.68a2.35,2.35,0,0,1,2.14,1.58,6.5,6.5,0,0,1,.25,1.88c0,3.25-2.34,11.8-4.78,15.1-0.82,1.17-1.88,2.19-3.15,2.19a2.12,2.12,0,0,1-1.58-.76,5,5,0,0,1-.81-3.1c0-3.15,1.73-9.61,3.46-13,1.47-2.85,3.2-3.91,4.47-3.91M182.57,31.71c0,6.1,3.15,8.49,6,8.49s5.59-1.88,7.47-4.27a20.77,20.77,0,0,0,4.12-12c0-4.78-2.29-8.14-6.2-8.14a8.8,8.8,0,0,0-4.88,1.68c-4.37,3.25-6.51,9.56-6.51,14.24m-14.5-8.39c0.56-1.53,1.93-5.19,3.2-5.19a0.89,0.89,0,0,1,.81,1.07c0,1.58-1.57,7.63-1.78,8.29-0.61,2.29-1.27,4.63-1.88,6.91-0.51,1.68-1,3.41-1.37,5.14h4c1.63-5.59,4.47-15.35,7.07-19.07a1.55,1.55,0,0,1,1.17-.91,1.32,1.32,0,0,1,1,.71,3.66,3.66,0,0,0,.81,1,0.82,0.82,0,0,0,.46.15c0.56,0,1.73-.76,1.73-2.64,0-2.19-1.37-2.9-2.24-2.9-2.13,0-3.71,2.39-4.73,4.22a43.56,43.56,0,0,0-2,4.17c0.1-.56.2-1.17,0.25-1.73a19.62,19.62,0,0,0,.15-2.49c0-.81,0-4.17-2.75-4.17-3,0-4.57,4-5.84,7.42Z" transform="translate(-3.19 -1.51)"/><path class="cls-2" d="M141.35,19.35c2.72,7.32,3.4,8.89,5.79,14.37-1.47,1.17-3.63,3-6.58,3-4.83,0-6.5-5.54-5.72-9.23a11.09,11.09,0,0,1,1.89-4.08,14.67,14.67,0,0,1,4.62-4M145,15.77c-1.28-3.08-2.17-5.31-1.74-7.38a4.94,4.94,0,0,1,4.71-4c2.24,0,3.83,1.85,3.26,4.53-0.71,3.36-4.18,5.54-6.23,6.82m17.41,18.79c-1,.9-2.77,2.52-4.91,2.52a4.78,4.78,0,0,1-3.85-2.24,22.69,22.69,0,0,1-2.05-4,46.09,46.09,0,0,0,3.78-5.09l1.86-3c2.31-3.47,3.94-4.19,6.33-4.92l0.31-1.45h-11L152.46,18c1.7,0.39,3.52.89,2.94,3.63-0.51,2.4-2.94,5.7-4.5,7.77-2.3-5.2-3.05-6.93-5.38-12.47a18.46,18.46,0,0,0,7.17-4.81,9,9,0,0,0,1.82-3.52c0.76-3.58-2-6.32-6.08-6.32a9.06,9.06,0,0,0-9,7.49c-0.73,3.41.33,5.87,1.26,8.16C138,19.35,131.57,22.76,130,30A8.45,8.45,0,0,0,131.15,37a7.22,7.22,0,0,0,6.49,3.41c4.17,0,7.47-2.63,10.18-5.31,1.49,2.57,2.26,4,4.41,4.86a8.37,8.37,0,0,0,2.93.56c3.71,0,6.13-2.52,7.88-4.31Z" transform="translate(-3.19 -1.51)"/><path class="cls-3" d="M117.23,22.3c0,1.83.76,3.4,1.83,5.44a56.41,56.41,0,0,1,2.95,6,4.66,4.66,0,0,1,.25,1.42c0,2.24-2.24,3.15-3.71,3.15a3,3,0,0,1-2-.61,2.15,2.15,0,0,1-.2-1.22,3.68,3.68,0,0,0-.76-2.44,2,2,0,0,0-1.32-.66,1.91,1.91,0,0,0-1.78,2c0,1.58,1.58,4.68,5.8,4.68,5.39,0,7.68-4,7.68-7,0-2.19-.92-3.92-2.85-7.68-0.36-.66-0.71-1.27-1-1.93A7.05,7.05,0,0,1,121,20.32a2.69,2.69,0,0,1,2.85-2.49,1.81,1.81,0,0,1,1.83,1.07,12.6,12.6,0,0,1,.36,1.32,1.4,1.4,0,0,0,1.37,1.12,1.93,1.93,0,0,0,1.93-2c0-1.88-2.19-3.41-5-3.41-2.95,0-7.12,1.78-7.12,6.41m-9.51-4.37c1.17,0,1.88.71,1.88,2.24,0,3-2.85,14.49-7.88,17.49a4.27,4.27,0,0,1-2.19.71,1.7,1.7,0,0,1-1.83-1.88c0-2.29,2.69-9.81,3.1-10.73a20.09,20.09,0,0,1,3-5.44c1.93-2.34,3.51-2.39,3.91-2.39m-9-13.47c0.66,0,1.63,0,2.24.05,1.17,0,1.68.36,1.68,1.12a3.92,3.92,0,0,1-.1.76L95.57,28.61c-1.32,4.37-1.68,5.49-1.68,7,0,3.2,2.24,4.58,4.88,4.58,2.08,0,5.49-.76,8.95-4.22a20.53,20.53,0,0,0,5.59-13.52,7.6,7.6,0,0,0-1.58-5.09,4.56,4.56,0,0,0-3.41-1.47c-2.8,0-4.63,2-5.49,2.9l5.24-16.83-0.71-.41a23.81,23.81,0,0,1-8.08,1.32ZM59.42,23.57a16.49,16.49,0,0,1,2.69-3.87,2.71,2.71,0,0,1,1.37-.76,0.64,0.64,0,0,1,.66.71A10.88,10.88,0,0,1,63.64,22L58.2,39.54h4.27l2.75-9.15c1.37-4,2.39-6.92,4.47-9.46,1-1.27,2.64-2.59,4.17-2.59a1.22,1.22,0,0,1,1.32,1.37,11.1,11.1,0,0,1-.56,2.54L69.24,39.54h4.32L76,31.61c1.68-5.14,2.85-8.34,5.08-10.78,1-1.12,2.69-2.59,4.07-2.59a1.23,1.23,0,0,1,1.37,1.37,6.22,6.22,0,0,1-.46,2l-3.71,12.2a10.72,10.72,0,0,0-.66,3A3.22,3.22,0,0,0,85.1,40c3.61,0,5.69-3.51,7.22-6l-1.37-1c-0.86,1.52-2.8,4.73-4.42,4.73a0.81,0.81,0,0,1-.81-0.92,3.52,3.52,0,0,1,.15-1l3.76-12.4a14.88,14.88,0,0,0,.91-3.86A3.58,3.58,0,0,0,86.63,16a8.31,8.31,0,0,0-5.44,2.34,15.7,15.7,0,0,0-2.75,3.46,11.18,11.18,0,0,0,.2-1.88c0-2.39-1.47-4-3.56-4-4.22,0-7.22,4.63-7.63,5.34l-0.31.61a14,14,0,0,0,.31-2A4.91,4.91,0,0,0,67.51,19c0-2.29-1.27-3-2.49-3-3.61,0-6.3,5.34-7.17,7.12Zm-8.54-5.95A2.35,2.35,0,0,1,53,19.2a6.45,6.45,0,0,1,.25,1.88c0,3.25-2.34,11.8-4.78,15.1-0.81,1.17-1.88,2.19-3.15,2.19a2.12,2.12,0,0,1-1.58-.76A5,5,0,0,1,43,34.5c0-3.15,1.73-9.61,3.46-13,1.47-2.85,3.2-3.91,4.47-3.91M39.24,31.71c0,6.1,3.15,8.49,6,8.49s5.59-1.88,7.47-4.27a20.76,20.76,0,0,0,4.12-12c0-4.78-2.29-8.14-6.2-8.14a8.81,8.81,0,0,0-4.88,1.68c-4.37,3.25-6.51,9.56-6.51,14.24M31.72,17.62a2.35,2.35,0,0,1,2.13,1.58,6.39,6.39,0,0,1,.25,1.88c0,3.25-2.34,11.8-4.78,15.1-0.81,1.17-1.88,2.19-3.15,2.19a2.12,2.12,0,0,1-1.58-.76,5,5,0,0,1-.81-3.1c0-3.15,1.73-9.61,3.46-13,1.47-2.85,3.2-3.91,4.48-3.91M20.07,31.71c0,6.1,3.15,8.49,6,8.49s5.59-1.88,7.47-4.27a20.76,20.76,0,0,0,4.12-12c0-4.78-2.29-8.14-6.2-8.14a8.81,8.81,0,0,0-4.88,1.68c-4.37,3.25-6.51,9.56-6.51,14.24m-4.32.05a18.16,18.16,0,0,1-3.1,4.73A4.13,4.13,0,0,1,9.8,37.86a2.3,2.3,0,0,1-2.14-2.14,5.74,5.74,0,0,1-.15-1.57c0-4.58,2.95-10.83,4.68-13.32s2.85-3.15,3.86-3.15a0.62,0.62,0,0,1,.76.61v0.36c-0.05.25-.2,0.51-0.25,0.76a0.86,0.86,0,0,0-.05.36,1.72,1.72,0,0,0,1.68,1.68,2.26,2.26,0,0,0,2.08-2.34c0-1.78-1.53-3.3-3.81-3.3-3.46,0-6.51,3-7.42,4A21,21,0,0,0,3.5,33c0,5.39,3.3,7,5.24,7a7.8,7.8,0,0,0,5.59-2.75,18.17,18.17,0,0,0,3-4.78Z" transform="translate(-3.19 -1.51)"/><path class="cls-1" d="M270.35,57.25h-1.09v-3l-3.18-4.38h1.3l2.47,3.53,2.41-3.53h1.24l-3.14,4.38v3Zm-12.52-4a1.73,1.73,0,0,0,.6-0.2,1.18,1.18,0,0,0,.41-0.4,1.23,1.23,0,0,0,.16-0.66,1.24,1.24,0,0,0-.34-0.91,1.51,1.51,0,0,0-1.12-.35h-2.72v2.58h2.28a5,5,0,0,0,.73-0.05m-0.23-3.36a2.91,2.91,0,0,1,1.84.52,1.71,1.71,0,0,1,.66,1.42,2.09,2.09,0,0,1-.34,1.18,1.76,1.76,0,0,1-1.09.69v0a1.55,1.55,0,0,1,.58.21,1.21,1.21,0,0,1,.36.35,1.53,1.53,0,0,1,.2.45,4.44,4.44,0,0,1,.1.52c0,0.18,0,.36,0,0.55a4.49,4.49,0,0,0,.06.55,2.74,2.74,0,0,0,.13.51,1.16,1.16,0,0,0,.26.43h-1.22a0.57,0.57,0,0,1-.15-0.31A3,3,0,0,1,259,56.5c0-.16,0-0.33,0-0.52a3.32,3.32,0,0,0-.07-0.55c0-.18-0.07-0.35-0.12-0.51a1.15,1.15,0,0,0-.22-0.42,1,1,0,0,0-.39-0.29,1.59,1.59,0,0,0-.65-0.11h-2.67v3.16h-1.09v-7.4h3.87Zm-17.12.83V49.85h6.58v0.83h-2.74v6.57h-1.09V50.68h-2.74Zm-8.23.18a2.51,2.51,0,0,0-1.4-.36,3.94,3.94,0,0,0-.68.06,2,2,0,0,0-.59.21,1.17,1.17,0,0,0-.41.39,1.09,1.09,0,0,0-.16.61,0.72,0.72,0,0,0,.23.55,1.68,1.68,0,0,0,.6.35,5.44,5.44,0,0,0,.85.22l1,0.19c0.32,0.07.65,0.15,1,.24a3.3,3.3,0,0,1,.85.38,1.89,1.89,0,0,1,.6.6,1.91,1.91,0,0,1-.07,1.92,2.29,2.29,0,0,1-.76.68,3.42,3.42,0,0,1-1,.38,5.52,5.52,0,0,1-1.13.12,5.43,5.43,0,0,1-1.31-.16,3.45,3.45,0,0,1-1.08-.47,2.28,2.28,0,0,1-.74-0.81,2.37,2.37,0,0,1-.27-1.17h1a1.52,1.52,0,0,0,.2.81,1.65,1.65,0,0,0,.53.55,2.39,2.39,0,0,0,.76.32,4.05,4.05,0,0,0,.9.1,4.61,4.61,0,0,0,.74-0.06,2.33,2.33,0,0,0,.67-0.21,1.31,1.31,0,0,0,.48-0.41,1.11,1.11,0,0,0,.19-0.66,0.87,0.87,0,0,0-.22-0.62,1.6,1.6,0,0,0-.6-0.39,4.52,4.52,0,0,0-.85-0.24l-1-.19c-0.32-.06-0.65-0.14-1-0.23a3.67,3.67,0,0,1-.85-0.34,1.72,1.72,0,0,1-.6-0.55,1.48,1.48,0,0,1-.23-0.84,1.82,1.82,0,0,1,.25-1,2.05,2.05,0,0,1,.67-0.67,3.2,3.2,0,0,1,1-.39,4.76,4.76,0,0,1,1.1-.13,4.85,4.85,0,0,1,1.17.13,2.77,2.77,0,0,1,.95.42,2.11,2.11,0,0,1,.65.73,2.35,2.35,0,0,1,.26,1.05h-1a1.5,1.5,0,0,0-.64-1.16m-11.72,6.39h-1.09v-7.4h1.09v7.4Zm-14.39-6.57V49.85h6.58v0.83H210v6.57h-1.09V50.68h-2.74Zm-12-.83,4.33,6h0v-6h1v7.4h-1.2L194,51.31h0v5.94h-1v-7.4h1.16Zm-8.27,0v0.83h-4.59V53h4.27v0.83h-4.27v2.56h4.62v0.83h-5.71v-7.4h5.68Zm-16.73,0a4.41,4.41,0,0,1,2.93.87,3.29,3.29,0,0,1,1,2.66,5.39,5.39,0,0,1-.23,1.65,3,3,0,0,1-.71,1.21,3.12,3.12,0,0,1-1.23.75,5.41,5.41,0,0,1-1.77.26h-2.82v-7.4h2.82Zm0.09,6.58,0.46,0a2.77,2.77,0,0,0,.59-0.13,2.82,2.82,0,0,0,.62-0.28,2,2,0,0,0,.55-0.51,2.71,2.71,0,0,0,.4-0.8,3.78,3.78,0,0,0,.16-1.17,4.62,4.62,0,0,0-.14-1.19,2.19,2.19,0,0,0-.47-0.89,2.07,2.07,0,0,0-.84-0.56,3.73,3.73,0,0,0-1.28-.19h-1.85v5.74h1.82Zm-21.7.83h-1.09v-3l-3.18-4.38h1.3L147,53.37l2.41-3.53h1.24l-3.14,4.38v3Zm-13.19-7.4v6.58h4.35v0.83H133.2v-7.4h1.09Zm-8.7,7.4H124.5v-7.4h1.09v7.4Zm-15.41-7.4,2.59,6.22,2.6-6.22h1.5v7.4h-1V51.09h0l-2.57,6.16h-0.93l-2.57-6.16h0v6.16h-1v-7.4h1.5Zm-11.3,0,3.21,7.4h-1.21L100,55H96.51l-0.92,2.23H94.47l3.2-7.4h1.21Zm0.76,4.34-1.37-3.45h0l-1.39,3.45h2.79ZM89.1,49.85v0.83H84.79V53h3.78v0.83H84.79v3.39H83.7v-7.4h5.4Z" transform="translate(-3.19 -1.51)"/><polygon class="cls-1" points="276.22 50.22 276.22 56.04 279.81 56.04 279.81 55.35 277 55.35 277 50.22 276.22 50.22"/><polygon class="cls-1" points="282.17 50.22 282.17 56.04 285.75 56.04 285.75 55.35 282.94 55.35 282.94 50.22 282.17 50.22"/><path class="cls-1" d="M296.33,55.44a2.83,2.83,0,0,1-2.86,2.26,3.06,3.06,0,0,1,.11-6.11,2.54,2.54,0,0,1,2.64,1.78l-0.78.16a1.65,1.65,0,0,0-.35-0.65,1.91,1.91,0,0,0-1.52-.67,2,2,0,0,0-1.6.73,2.62,2.62,0,0,0-.49,1.66c0,1.44.73,2.45,2.07,2.45a1.86,1.86,0,0,0,1.93-1.71Z" transform="translate(-3.19 -1.51)"/><path class="cls-4" d="M3.3,76.72V76.09a3.42,3.42,0,0,0,.77-0.23,0.37,0.37,0,0,0,.26-0.23V68q-0.58.07-1,.15l-0.11-.78q0.43-.1,1-0.18L5.25,67l1.15-.09q0.58,0,1.1,0a7.23,7.23,0,0,1,1.65.18,4.07,4.07,0,0,1,1.28.52,2.5,2.5,0,0,1,.83.85,2.26,2.26,0,0,1,.29,1.16,3,3,0,0,1-.31,1.4,3.23,3.23,0,0,1-.8,1,3.39,3.39,0,0,1-1.06.61,3.31,3.31,0,0,1-1.1.2,4.3,4.3,0,0,1-.7-0.06A2.53,2.53,0,0,1,7,72.57l-0.25-.88a2.42,2.42,0,0,0,.53.19,2.67,2.67,0,0,0,.49,0,1.71,1.71,0,0,0,.62-0.11,1.37,1.37,0,0,0,.52-0.36,1.77,1.77,0,0,0,.36-0.62,2.82,2.82,0,0,0,.13-0.92A2.39,2.39,0,0,0,9.21,69a1.85,1.85,0,0,0-.46-0.68A2,2,0,0,0,8,67.9a3.05,3.05,0,0,0-1-.14H6.46v7.85a0.16,0.16,0,0,0,0,.1,0.54,0.54,0,0,0,.18.11,2.4,2.4,0,0,0,.38.12l0.64,0.13v0.63H3.3Z" transform="translate(-3.19 -1.51)"/><path class="cls-4" d="M19.11,75.79q-0.32.22-.69,0.43t-0.72.37q-0.35.16-.63,0.26a1.46,1.46,0,0,1-.43.1,0.59,0.59,0,0,1-.5-0.32,1.87,1.87,0,0,1-.25-0.87,4.51,4.51,0,0,1-.69.57,4.31,4.31,0,0,1-.67.37,3,3,0,0,1-.62.19,3.06,3.06,0,0,1-.54.05,1.89,1.89,0,0,1-.65-0.11,1.68,1.68,0,0,1-1-.91,1.85,1.85,0,0,1-.15-0.78,1.83,1.83,0,0,1,.18-0.85,2.56,2.56,0,0,1,.47-0.64,3.43,3.43,0,0,1,.42-0.35A3.06,3.06,0,0,1,13.31,73a8.09,8.09,0,0,1,1-.31q0.62-.15,1.55-0.3V71.52a2,2,0,0,0,0-.42,0.85,0.85,0,0,0-.15-0.33,0.72,0.72,0,0,0-.28-0.22A1.05,1.05,0,0,0,15,70.47a0.91,0.91,0,0,0-.61.25,0.84,0.84,0,0,0-.25.71,0.19,0.19,0,0,1-.14.12l-0.37.15-0.5.16L12.6,72l-0.44.09a0.83,0.83,0,0,1-.25,0l-0.18-.45a2.66,2.66,0,0,1,.59-0.89,4.15,4.15,0,0,1,1-.71,5.33,5.33,0,0,1,1.2-.47,5.25,5.25,0,0,1,1.34-.17,2.78,2.78,0,0,1,1,.15,1.82,1.82,0,0,1,.66.4,1.55,1.55,0,0,1,.38.6,2.21,2.21,0,0,1,.12.74v3.46a0.92,0.92,0,0,0,.08.46,0.25,0.25,0,0,0,.22.14h0.11l0.13,0,0.18-.06,0.26-.1Zm-4.68-.29,0.25,0a1.22,1.22,0,0,0,.31-0.1,3.21,3.21,0,0,0,.39-0.23,4.81,4.81,0,0,0,.5-0.39V73.17l-0.68.13-0.47.13a1.64,1.64,0,0,0-.32.14,1.18,1.18,0,0,0-.22.17,2,2,0,0,0-.32.41,1.05,1.05,0,0,0-.12.53,1,1,0,0,0,.07.4,0.76,0.76,0,0,0,.17.26,0.56,0.56,0,0,0,.22.13A0.71,0.71,0,0,0,14.43,75.5Z" transform="translate(-3.19 -1.51)"/><path class="cls-4" d="M27.74,75.79l-0.65.39-0.72.38-0.63.28a1.28,1.28,0,0,1-.37.11,1,1,0,0,1-.27,0,0.57,0.57,0,0,1-.25-0.16,1.11,1.11,0,0,1-.21-0.36,2.85,2.85,0,0,1-.15-0.63,8.84,8.84,0,0,1-.84.63,4.36,4.36,0,0,1-.67.36,2.46,2.46,0,0,1-.56.16,3.32,3.32,0,0,1-.5,0,2.62,2.62,0,0,1-.71-0.1,1.51,1.51,0,0,1-.63-0.36,1.92,1.92,0,0,1-.45-0.72A3.33,3.33,0,0,1,20,74.6V71.53c0-.24,0-0.43,0-0.57a0.54,0.54,0,0,0-.09-0.3,0.43,0.43,0,0,0-.27-0.14l-0.54-.08V69.83l0.76-.06,0.66-.08,0.62-.11,0.64-.17L22,69.78V74.1a4,4,0,0,0,.05.72,1.22,1.22,0,0,0,.15.43,0.47,0.47,0,0,0,.24.2,1,1,0,0,0,.34,0l0.3,0a1.84,1.84,0,0,0,.37-0.11,3.29,3.29,0,0,0,.46-0.24,5,5,0,0,0,.56-0.4V71.53a5.19,5.19,0,0,0,0-.55,0.57,0.57,0,0,0-.12-0.32,0.55,0.55,0,0,0-.3-0.16,3.22,3.22,0,0,0-.55-0.06V69.83q0.84-.07,1.49-0.18t1.25-.25l0.31,0.37v4.7c0,0.16,0,.28,0,0.38a1.52,1.52,0,0,0,0,.24,0.34,0.34,0,0,0,.05.14l0.09,0.08,0.1,0H27l0.21-.07,0.32-.13Z" transform="translate(-3.19 -1.51)"/><path class="cls-4" d="M28.17,76.72V76.09A5,5,0,0,0,28.7,76,2,2,0,0,0,29,75.86a0.41,0.41,0,0,0,.16-0.12,0.22,0.22,0,0,0,0-.12V67.15a3.21,3.21,0,0,0,0-.53,0.48,0.48,0,0,0-.14-0.29,0.61,0.61,0,0,0-.3-0.13l-0.51-.07V65.52L29,65.4l0.67-.13,0.63-.16,0.63-.21,0.35,0.34V75.62a0.18,0.18,0,0,0,0,.12,0.54,0.54,0,0,0,.17.12,1.83,1.83,0,0,0,.33.12l0.52,0.11v0.63H28.17Z" transform="translate(-3.19 -1.51)"/><path class="cls-4" d="M45,75.11A6.55,6.55,0,0,1,43,76.52a4.54,4.54,0,0,1-1.86.43,3.84,3.84,0,0,1-1.54-.32,4,4,0,0,1-1.32-.92,4.53,4.53,0,0,1-.92-1.47,5.33,5.33,0,0,1-.35-2A6.17,6.17,0,0,1,37.42,70a5.12,5.12,0,0,1,1-1.7A4.52,4.52,0,0,1,40,67.26a4.85,4.85,0,0,1,2-.37,5.7,5.7,0,0,1,.83.06,6.76,6.76,0,0,1,.8.16,5,5,0,0,1,.7.24,2.22,2.22,0,0,1,.51.3,0.17,0.17,0,0,1,0,.15,2.78,2.78,0,0,1-.11.32l-0.18.4-0.2.42-0.19.35a1.17,1.17,0,0,1-.15.21l-0.57-.12a2.76,2.76,0,0,0-.87-1.1,1.79,1.79,0,0,0-1-.32,1.92,1.92,0,0,0-.79.18,1.87,1.87,0,0,0-.73.64A3.78,3.78,0,0,0,39.43,70a7.81,7.81,0,0,0-.21,2,4.9,4.9,0,0,0,.24,1.64,3.34,3.34,0,0,0,.63,1.12,2.44,2.44,0,0,0,.88.64,2.49,2.49,0,0,0,1,.21,3.32,3.32,0,0,0,.49,0,3.44,3.44,0,0,0,.61-0.16,4.84,4.84,0,0,0,.71-0.32,4.64,4.64,0,0,0,.77-0.52l0.1,0.11,0.13,0.18L44.88,75Z" transform="translate(-3.19 -1.51)"/><path class="cls-4" d="M52.72,73a3.58,3.58,0,0,1-.14,1,4.1,4.1,0,0,1-.39.92,4.2,4.2,0,0,1-.61.8,4.09,4.09,0,0,1-.78.64,3.81,3.81,0,0,1-.91.42,3.43,3.43,0,0,1-1,.15,3.77,3.77,0,0,1-1.46-.27,3.26,3.26,0,0,1-1.84-1.9,4,4,0,0,1-.25-1.44,4,4,0,0,1,.13-1,4.1,4.1,0,0,1,.36-0.93,3.93,3.93,0,0,1,.58-0.81A3.74,3.74,0,0,1,47.16,70a3.85,3.85,0,0,1,.93-0.42,4,4,0,0,1,2.53.12,3.29,3.29,0,0,1,1.12.76,3.35,3.35,0,0,1,.72,1.15A4,4,0,0,1,52.72,73Zm-2.17.38a6.18,6.18,0,0,0-.1-1.15,3.92,3.92,0,0,0-.3-1,1.88,1.88,0,0,0-.5-0.66A1.07,1.07,0,0,0,49,70.39a1.18,1.18,0,0,0-.72.21,1.4,1.4,0,0,0-.45.57,3.08,3.08,0,0,0-.23.87,8.41,8.41,0,0,0-.06,1.08,5,5,0,0,0,.12,1.12,3.52,3.52,0,0,0,.33.9,1.81,1.81,0,0,0,.5.6,1.05,1.05,0,0,0,.64.22,1.39,1.39,0,0,0,.71-0.16,1.15,1.15,0,0,0,.45-0.49,2.61,2.61,0,0,0,.23-0.8A7.79,7.79,0,0,0,50.55,73.41Z" transform="translate(-3.19 -1.51)"/><path class="cls-4" d="M60.72,73a3.58,3.58,0,0,1-.14,1,4.1,4.1,0,0,1-.39.92,4.2,4.2,0,0,1-.61.8,4.09,4.09,0,0,1-.78.64,3.81,3.81,0,0,1-.91.42,3.43,3.43,0,0,1-1,.15,3.77,3.77,0,0,1-1.46-.27,3.26,3.26,0,0,1-1.84-1.9,4,4,0,0,1-.25-1.44,4,4,0,0,1,.13-1,4.1,4.1,0,0,1,.36-0.93,3.93,3.93,0,0,1,.58-0.81A3.74,3.74,0,0,1,55.16,70a3.85,3.85,0,0,1,.93-0.42,4,4,0,0,1,2.53.12,3.29,3.29,0,0,1,1.12.76,3.35,3.35,0,0,1,.72,1.15A4,4,0,0,1,60.72,73Zm-2.17.38a6.18,6.18,0,0,0-.1-1.15,3.92,3.92,0,0,0-.3-1,1.88,1.88,0,0,0-.5-0.66A1.07,1.07,0,0,0,57,70.39a1.18,1.18,0,0,0-.72.21,1.4,1.4,0,0,0-.45.57,3.08,3.08,0,0,0-.23.87,8.41,8.41,0,0,0-.06,1.08,5,5,0,0,0,.12,1.12,3.52,3.52,0,0,0,.33.9,1.81,1.81,0,0,0,.5.6,1.05,1.05,0,0,0,.64.22,1.39,1.39,0,0,0,.71-0.16,1.15,1.15,0,0,0,.45-0.49,2.61,2.61,0,0,0,.23-0.8A7.79,7.79,0,0,0,58.55,73.41Z" transform="translate(-3.19 -1.51)"/><path class="cls-4" d="M69.82,76.72V76.09A3.6,3.6,0,0,0,70.26,76l0.25-.12a0.34,0.34,0,0,0,.11-0.11,0.21,0.21,0,0,0,0-.1V72.2a4.33,4.33,0,0,0,0-.74,1.06,1.06,0,0,0-.15-0.41,0.4,0.4,0,0,0-.24-0.17,1.6,1.6,0,0,0-.35,0,2.22,2.22,0,0,0-.67.13,3.55,3.55,0,0,0-.87.45v4.18a0.19,0.19,0,0,0,0,.1,0.34,0.34,0,0,0,.13.1l0.28,0.12,0.48,0.14v0.63H65.44V76.09A3.56,3.56,0,0,0,65.88,76l0.25-.12a0.34,0.34,0,0,0,.11-0.11,0.21,0.21,0,0,0,0-.1V72.2a6.08,6.08,0,0,0,0-.74,1.11,1.11,0,0,0-.11-0.41,0.35,0.35,0,0,0-.22-0.17,1.49,1.49,0,0,0-.34,0,2.3,2.3,0,0,0-.69.13,4.2,4.2,0,0,0-.93.46v4.18a0.33,0.33,0,0,0,.21.24,2.55,2.55,0,0,0,.71.23v0.63h-4V76.09a5.85,5.85,0,0,0,.75-0.23,0.31,0.31,0,0,0,.24-0.23V71.53c0-.2,0-0.36,0-0.48a0.42,0.42,0,0,0-.11-0.27,0.61,0.61,0,0,0-.3-0.14l-0.57-.09V69.94l0.78-.1,0.65-.11,0.59-.14,0.57-.18,0.34,0.34,0.08,0.68a7.64,7.64,0,0,1,.82-0.54,4.21,4.21,0,0,1,.68-0.31A2.94,2.94,0,0,1,66,69.44a4.66,4.66,0,0,1,.55,0,2,2,0,0,1,.64.09,1.74,1.74,0,0,1,.46.23A1.3,1.3,0,0,1,68,70a1.49,1.49,0,0,1,.18.33l0,0.08A8,8,0,0,1,69,69.9a4.76,4.76,0,0,1,.69-0.31,3,3,0,0,1,.6-0.15,4.22,4.22,0,0,1,.56,0,2.24,2.24,0,0,1,.7.11,1.53,1.53,0,0,1,.59.35,1.69,1.69,0,0,1,.41.63,2.68,2.68,0,0,1,.15,1v4.17a0.31,0.31,0,0,0,.24.21,6.19,6.19,0,0,0,.84.26v0.63h-4Z" transform="translate(-3.19 -1.51)"/><path class="cls-4" d="M81.31,72.82a2.66,2.66,0,0,1-.18.92,4.56,4.56,0,0,1-.48.94,6,6,0,0,1-1.57,1.6,4.42,4.42,0,0,1-.95.49,2.4,2.4,0,0,1-1.52.11q-0.34-.08-0.74-0.21c-0.26-.09-0.54-0.19-0.82-0.3S74.5,76.12,74.22,76V67.15a4.24,4.24,0,0,0,0-.54,0.5,0.5,0,0,0-.12-0.29,0.48,0.48,0,0,0-.27-0.13l-0.5-.07V65.52L74,65.4l0.66-.13,0.61-.16,0.6-.2L76,65l0.12,0.11,0.15,0.14v5.18A6,6,0,0,1,77,69.94a5.61,5.61,0,0,1,.7-0.32,3.54,3.54,0,0,1,.62-0.17,2.93,2.93,0,0,1,.51,0,2.17,2.17,0,0,1,1,.24,2.22,2.22,0,0,1,.77.69,3.32,3.32,0,0,1,.48,1.07A5.46,5.46,0,0,1,81.31,72.82Zm-1.91.72a5.54,5.54,0,0,0-.13-1.28,2.54,2.54,0,0,0-.35-0.84A1.34,1.34,0,0,0,78.42,71a1.45,1.45,0,0,0-.64-0.14,1.88,1.88,0,0,0-.62.13,4.92,4.92,0,0,0-.88.45V75a8.77,8.77,0,0,0,1,.42,2.28,2.28,0,0,0,.63.13,1.34,1.34,0,0,0,.65-0.15A1.31,1.31,0,0,0,79,75a2,2,0,0,0,.27-0.65A3.57,3.57,0,0,0,79.4,73.54Z" transform="translate(-3.19 -1.51)"/><path class="cls-4" d="M87.7,74.56a2.31,2.31,0,0,1-.17.93,2.09,2.09,0,0,1-.43.65,2.13,2.13,0,0,1-.61.43,3.58,3.58,0,0,1-.69.24,4.37,4.37,0,0,1-.68.11l-0.57,0a5,5,0,0,1-.57,0,6.09,6.09,0,0,1-.62-0.1,5.27,5.27,0,0,1-.62-0.18,3.86,3.86,0,0,1-.55-0.24,0.41,0.41,0,0,1-.08-0.28,6,6,0,0,1,0-.61c0-.24,0-0.49,0-0.76A4.42,4.42,0,0,1,82.23,74l0.71,0.08a3.11,3.11,0,0,0,.28.78,2.37,2.37,0,0,0,.42.58,1.75,1.75,0,0,0,.53.36,1.46,1.46,0,0,0,.6.13,1.48,1.48,0,0,0,.79-0.16,0.65,0.65,0,0,0,.24-0.58,1,1,0,0,0-.15-0.55,1.88,1.88,0,0,0-.4-0.46,3.7,3.7,0,0,0-.58-0.39L84,73.45q-0.32-.16-0.64-0.36a4,4,0,0,1-.58-0.44,2.13,2.13,0,0,1-.43-0.53,1.33,1.33,0,0,1-.16-0.66,1.55,1.55,0,0,1,.24-0.85A2.2,2.2,0,0,1,83.06,70,3.28,3.28,0,0,1,84,69.55,3.93,3.93,0,0,1,85,69.4a6,6,0,0,1,.7,0,5.76,5.76,0,0,1,.66.12,4.17,4.17,0,0,1,.58.18,2,2,0,0,1,.45.24,0.41,0.41,0,0,1,0,.27,3.88,3.88,0,0,1-.09.53,6.06,6.06,0,0,1-.18.59,1.71,1.71,0,0,1-.21.43l-0.6-.06a2.3,2.3,0,0,0-.48-1.12,1.13,1.13,0,0,0-.9-0.4,1.1,1.1,0,0,0-.69.18,0.6,0.6,0,0,0-.24.5,0.81,0.81,0,0,0,.11.43,1.32,1.32,0,0,0,.33.35,4.11,4.11,0,0,0,.55.34l0.76,0.4,0.66,0.36a3.21,3.21,0,0,1,.6.44,2.12,2.12,0,0,1,.43.56A1.57,1.57,0,0,1,87.7,74.56Z" transform="translate(-3.19 -1.51)"/><path class="cls-4" d="M97.2,67.75a3.23,3.23,0,0,0-.77.24,0.38,0.38,0,0,0-.26.24v7.17A4.87,4.87,0,0,1,96,76.8a4.2,4.2,0,0,1-.47,1,3.73,3.73,0,0,1-.62.75q-0.34.31-.63,0.55a3.84,3.84,0,0,1-.46.32,4.11,4.11,0,0,1-.54.27,4,4,0,0,1-.59.19,2.56,2.56,0,0,1-.59.07,3.25,3.25,0,0,1-.74-0.08,4.1,4.1,0,0,1-.65-0.2,2.06,2.06,0,0,1-.46-0.25,0.35,0.35,0,0,1-.18-0.22,0.37,0.37,0,0,1,.08-0.18,2.36,2.36,0,0,1,.22-0.26l0.3-.3L91,78.21,91.29,78a0.88,0.88,0,0,1,.2-0.12,3,3,0,0,0,.82.57,1.77,1.77,0,0,0,.69.17,1,1,0,0,0,.38-0.08,0.73,0.73,0,0,0,.33-0.36,2.81,2.81,0,0,0,.23-0.81A9.09,9.09,0,0,0,94,75.94V68.22a0.15,0.15,0,0,0,0-.1,0.6,0.6,0,0,0-.2-0.11,3,3,0,0,0-.43-0.13l-0.74-.13V67.12H97.2v0.63Z" transform="translate(-3.19 -1.51)"/><path class="cls-4" d="M104,69.76a0.28,0.28,0,0,1,0,.21,3.46,3.46,0,0,1,0,.45c0,0.18-.06.37-0.11,0.58s-0.09.42-.14,0.62-0.1.39-.16,0.55a3.88,3.88,0,0,1-.14.39h-0.63a3.9,3.9,0,0,0-.08-0.6,2.54,2.54,0,0,0-.16-0.52,1.12,1.12,0,0,0-.26-0.37,0.5,0.5,0,0,0-.35-0.14l-0.3,0a1,1,0,0,0-.35.15,1.89,1.89,0,0,0-.4.37,3.94,3.94,0,0,0-.45.7v3.45a0.41,0.41,0,0,0,.32.24,5.43,5.43,0,0,0,1,.23v0.63H97.37V76.09a1.24,1.24,0,0,0,1-.47v-3.9c0-.17,0-0.31,0-0.42a2.33,2.33,0,0,0,0-.28,0.6,0.6,0,0,0-.06-0.17l-0.06-.1-0.11-.09-0.14-.06-0.22,0-0.35,0V69.94l0.8-.11,0.61-.11,0.55-.13L100,69.4l0.34,0.34,0.1,0.89a3.75,3.75,0,0,1,.47-0.48,3.46,3.46,0,0,1,.56-0.39,3.14,3.14,0,0,1,.63-0.27,2.24,2.24,0,0,1,.66-0.1,2.17,2.17,0,0,1,.63.1A3,3,0,0,1,104,69.76Z" transform="translate(-3.19 -1.51)"/><path class="cls-4" d="M105.75,75.71a1.27,1.27,0,0,1-.12.57,1.18,1.18,0,0,1-.33.41,1.47,1.47,0,0,1-.48.25,1.91,1.91,0,0,1-.58.09,1.66,1.66,0,0,1-.45-0.06,1.16,1.16,0,0,1-.39-0.19,0.94,0.94,0,0,1-.27-0.34,1.1,1.1,0,0,1-.1-0.5,1.22,1.22,0,0,1,.13-0.56,1.29,1.29,0,0,1,.34-0.42,1.46,1.46,0,0,1,.48-0.26,1.85,1.85,0,0,1,.57-0.09,1.61,1.61,0,0,1,.43.06,1.15,1.15,0,0,1,.39.2,1,1,0,0,1,.28.34A1.07,1.07,0,0,1,105.75,75.71Z" transform="translate(-3.19 -1.51)"/><path class="cls-4" d="M110,76.19a2.68,2.68,0,0,1-.19,1,5,5,0,0,1-.52,1,6.26,6.26,0,0,1-.76.93,5,5,0,0,1-.91.74L107,79.39a4.62,4.62,0,0,0,.69-1.06A2.88,2.88,0,0,0,108,77.1a0.83,0.83,0,0,0-.08-0.34,1,1,0,0,0-.22-0.31,1,1,0,0,0-.79-0.28l-0.12-.66a0.66,0.66,0,0,1,.2-0.14l0.38-.18,0.49-.19,0.52-.17,0.48-.12a1.55,1.55,0,0,1,.37,0,1.36,1.36,0,0,1,.33.21,1.06,1.06,0,0,1,.24.3,1.66,1.66,0,0,1,.15.43A2.76,2.76,0,0,1,110,76.19Z" transform="translate(-3.19 -1.51)"/><path class="cls-4" d="M122.84,72.27a5.9,5.9,0,0,1-.17,1.47,4.46,4.46,0,0,1-.46,1.15,3.44,3.44,0,0,1-.69.84,3.81,3.81,0,0,1-.84.57,4,4,0,0,1-.94.32,4.58,4.58,0,0,1-1,.1h-3.95V76.17a3,3,0,0,0,.67-0.2,0.32,0.32,0,0,0,.22-0.2V69.16l-0.89.13-0.09-.67c0.22-.05.49-0.1,0.8-0.15l1-.13,1-.09,1,0a5.72,5.72,0,0,1,1.85.27,3.65,3.65,0,0,1,1.36.79,3.35,3.35,0,0,1,.83,1.27A4.82,4.82,0,0,1,122.84,72.27ZM118,69h-0.45v6.49a1.51,1.51,0,0,0,0,.2,0.24,0.24,0,0,0,.1.16,0.7,0.7,0,0,0,.28.1,3.05,3.05,0,0,0,.54,0,1.84,1.84,0,0,0,.77-0.19,2.23,2.23,0,0,0,.76-0.61,3.45,3.45,0,0,0,.58-1.07,4.73,4.73,0,0,0,.23-1.58,4.18,4.18,0,0,0-.72-2.66A2.55,2.55,0,0,0,118,69Z" transform="translate(-3.19 -1.51)"/><path class="cls-4" d="M133.5,69a1.93,1.93,0,0,0-.37,0l-0.45.12,0.07,6.65A0.36,0.36,0,0,0,133,76a3.09,3.09,0,0,0,.72.21v0.55h-3.59V76.17a3.84,3.84,0,0,0,.7-0.2,0.35,0.35,0,0,0,.25-0.2L131,70.68l-2.76,6h-0.72l-2.68-6-0.05,5.08A0.33,0.33,0,0,0,125,76a2.47,2.47,0,0,0,.68.21v0.55h-2.8V76.17a2.9,2.9,0,0,0,.67-0.2,0.32,0.32,0,0,0,.22-0.2l0.07-6.59a1.64,1.64,0,0,0-.47-0.17,2.15,2.15,0,0,0-.43,0V68.41h2.41l0.12,0a0.26,0.26,0,0,1,.11.08,1,1,0,0,1,.12.17c0,0.07.09,0.17,0.14,0.29l2.37,5.36L130.67,69a3.2,3.2,0,0,1,.15-0.31,0.83,0.83,0,0,1,.12-0.16,0.24,0.24,0,0,1,.11-0.07h2.46V69Z" transform="translate(-3.19 -1.51)"/><path class="cls-4" d="M142.43,72.27a5.9,5.9,0,0,1-.17,1.47,4.46,4.46,0,0,1-.46,1.15,3.44,3.44,0,0,1-.69.84,3.81,3.81,0,0,1-.84.57,4,4,0,0,1-.94.32,4.58,4.58,0,0,1-1,.1h-3.95V76.17a3,3,0,0,0,.67-0.2,0.32,0.32,0,0,0,.22-0.2V69.16l-0.89.13-0.09-.67c0.22-.05.49-0.1,0.8-0.15l1-.13,1-.09,1,0a5.72,5.72,0,0,1,1.85.27,3.65,3.65,0,0,1,1.36.79,3.35,3.35,0,0,1,.83,1.27A4.82,4.82,0,0,1,142.43,72.27ZM137.62,69h-0.45v6.49a1.51,1.51,0,0,0,0,.2,0.24,0.24,0,0,0,.1.16,0.7,0.7,0,0,0,.28.1,3.05,3.05,0,0,0,.54,0,1.84,1.84,0,0,0,.77-0.19,2.23,2.23,0,0,0,.76-0.61,3.45,3.45,0,0,0,.58-1.07,4.73,4.73,0,0,0,.23-1.58,4.18,4.18,0,0,0-.72-2.66A2.55,2.55,0,0,0,137.62,69Z" transform="translate(-3.19 -1.51)"/><path class="cls-4" d="M150.49,71.68a2.56,2.56,0,0,1-.13.85,2,2,0,0,1-.37.66,1.68,1.68,0,0,1-.57.43,1.73,1.73,0,0,1-.74.15,1.5,1.5,0,0,1-.64-0.13,1.22,1.22,0,0,1-.45-0.35,1.61,1.61,0,0,1-.27-0.54,2.42,2.42,0,0,1-.09-0.68,2.4,2.4,0,0,1,.14-0.84,2.08,2.08,0,0,1,.39-0.66A1.69,1.69,0,0,1,149,70a1.43,1.43,0,0,1,.61.13,1.26,1.26,0,0,1,.45.35,1.56,1.56,0,0,1,.28.54A2.35,2.35,0,0,1,150.49,71.68Z" transform="translate(-3.19 -1.51)"/><path class="cls-4" d="M167.42,67.75l-0.56.13-0.35.12a0.73,0.73,0,0,0-.19.11,0.19,0.19,0,0,0-.06.11l-1.75,8.05a0.52,0.52,0,0,1-.18.28,1.3,1.3,0,0,1-.31.2,2.32,2.32,0,0,1-.35.13l-0.29.07-2.64-6.74-2.19,6.06a0.59,0.59,0,0,1-.19.27,1.47,1.47,0,0,1-.32.19,2.29,2.29,0,0,1-.37.13l-0.34.08-2-8.67a0.47,0.47,0,0,0-.27-0.31,3,3,0,0,0-.78-0.22V67.12h3.88v0.63a3.59,3.59,0,0,0-.58.09,0.93,0.93,0,0,0-.29.13,0.22,0.22,0,0,0-.1.15,0.61,0.61,0,0,0,0,.16l1.24,5.16,2.14-6.33h0.88L164,73.44l1.16-5.22a0.16,0.16,0,0,0-.07-0.16,0.79,0.79,0,0,0-.24-0.12l-0.38-.1L164,67.75V67.12h3.46v0.63Z" transform="translate(-3.19 -1.51)"/><path class="cls-4" d="M167.24,76.72V76.09a3,3,0,0,0,.75-0.23,0.36,0.36,0,0,0,.24-0.23V71.84c0-.26,0-0.47,0-0.63a0.72,0.72,0,0,0-.09-0.37,0.48,0.48,0,0,0-.29-0.19,3.38,3.38,0,0,0-.61-0.1V69.94q0.72-.09,1.32-0.22a10.28,10.28,0,0,0,1.17-.32h0.56v6.22a0.37,0.37,0,0,0,.22.23,2.52,2.52,0,0,0,.77.24v0.63h-4Zm3.35-9.61a1.13,1.13,0,0,1-.11.49,1.1,1.1,0,0,1-.3.38,1.36,1.36,0,0,1-.45.24,1.78,1.78,0,0,1-.56.08,1.86,1.86,0,0,1-.44,0,1.15,1.15,0,0,1-.38-0.16,0.84,0.84,0,0,1-.27-0.28,0.76,0.76,0,0,1-.1-0.4,1.09,1.09,0,0,1,.11-0.5,1.1,1.1,0,0,1,.3-0.37,1.43,1.43,0,0,1,.45-0.24,1.76,1.76,0,0,1,.55-0.08,1.87,1.87,0,0,1,.43,0,1.15,1.15,0,0,1,.38.16,0.88,0.88,0,0,1,.27.27A0.74,0.74,0,0,1,170.59,67.11Z" transform="translate(-3.19 -1.51)"/><path class="cls-4" d="M172,76.72V76.09a5,5,0,0,0,.54-0.11,2,2,0,0,0,.33-0.11,0.4,0.4,0,0,0,.16-0.12,0.21,0.21,0,0,0,0-.12V67.15a3.14,3.14,0,0,0,0-.53,0.48,0.48,0,0,0-.14-0.29,0.61,0.61,0,0,0-.3-0.13l-0.51-.07V65.52l0.77-.11,0.68-.13,0.62-.16,0.63-.21,0.35,0.34V75.62a0.18,0.18,0,0,0,0,.12,0.54,0.54,0,0,0,.17.12,1.82,1.82,0,0,0,.33.12l0.52,0.11v0.63H172Z" transform="translate(-3.19 -1.51)"/><path class="cls-4" d="M176.85,76.72V76.09a5,5,0,0,0,.54-0.11,2,2,0,0,0,.33-0.11,0.4,0.4,0,0,0,.16-0.12,0.21,0.21,0,0,0,0-.12V67.15a3.14,3.14,0,0,0,0-.53,0.48,0.48,0,0,0-.14-0.29,0.61,0.61,0,0,0-.3-0.13l-0.51-.07V65.52l0.77-.11,0.68-.13,0.62-.16,0.63-.21L180,65.24V75.62a0.18,0.18,0,0,0,0,.12,0.54,0.54,0,0,0,.17.12,1.82,1.82,0,0,0,.33.12L181,76.09v0.63h-4.19Z" transform="translate(-3.19 -1.51)"/><path class="cls-4" d="M181.76,76.72V76.09a3,3,0,0,0,.75-0.23,0.36,0.36,0,0,0,.24-0.23V71.84c0-.26,0-0.47,0-0.63a0.72,0.72,0,0,0-.09-0.37,0.48,0.48,0,0,0-.29-0.19,3.38,3.38,0,0,0-.61-0.1V69.94q0.72-.09,1.32-0.22a10.28,10.28,0,0,0,1.17-.32h0.56v6.22a0.37,0.37,0,0,0,.22.23,2.52,2.52,0,0,0,.77.24v0.63h-4Zm3.35-9.61a1.13,1.13,0,0,1-.11.49,1.1,1.1,0,0,1-.3.38,1.36,1.36,0,0,1-.45.24,1.78,1.78,0,0,1-.56.08,1.86,1.86,0,0,1-.44,0,1.15,1.15,0,0,1-.38-0.16,0.84,0.84,0,0,1-.27-0.28,0.76,0.76,0,0,1-.1-0.4,1.09,1.09,0,0,1,.11-0.5,1.1,1.1,0,0,1,.3-0.37,1.43,1.43,0,0,1,.45-0.24,1.76,1.76,0,0,1,.55-0.08,1.87,1.87,0,0,1,.43,0,1.15,1.15,0,0,1,.38.16,0.88,0.88,0,0,1,.27.27A0.74,0.74,0,0,1,185.12,67.11Z" transform="translate(-3.19 -1.51)"/><path class="cls-4" d="M193.5,75.79q-0.32.22-.69,0.43t-0.72.37c-0.23.11-.44,0.19-0.63,0.26a1.45,1.45,0,0,1-.43.1,0.59,0.59,0,0,1-.49-0.32,1.87,1.87,0,0,1-.25-0.87,4.54,4.54,0,0,1-.69.57,4.26,4.26,0,0,1-.67.37,3,3,0,0,1-.62.19,3.05,3.05,0,0,1-.54.05,1.89,1.89,0,0,1-.65-0.11,1.68,1.68,0,0,1-1-.91,1.86,1.86,0,0,1-.15-0.78,1.82,1.82,0,0,1,.18-0.85,2.58,2.58,0,0,1,.47-0.64,3.39,3.39,0,0,1,.42-0.35A3.07,3.07,0,0,1,187.7,73a8.08,8.08,0,0,1,1-.31q0.62-.15,1.55-0.3V71.52a2,2,0,0,0,0-.42,0.84,0.84,0,0,0-.14-0.33,0.72,0.72,0,0,0-.28-0.22,1.06,1.06,0,0,0-.43-0.08,0.91,0.91,0,0,0-.61.25,0.84,0.84,0,0,0-.25.71,0.2,0.2,0,0,1-.14.12L188,71.7l-0.5.16L187,72l-0.44.09a0.83,0.83,0,0,1-.25,0l-0.18-.45a2.65,2.65,0,0,1,.59-0.89,4.18,4.18,0,0,1,1-.71,5.33,5.33,0,0,1,2.54-.64,2.79,2.79,0,0,1,1,.15,1.82,1.82,0,0,1,.66.4,1.57,1.57,0,0,1,.38.6,2.21,2.21,0,0,1,.12.74v3.46a0.92,0.92,0,0,0,.08.46,0.25,0.25,0,0,0,.22.14h0.11l0.13,0,0.18-.06,0.26-.1Zm-4.68-.29,0.25,0a1.21,1.21,0,0,0,.31-0.1,3.29,3.29,0,0,0,.39-0.23,4.76,4.76,0,0,0,.5-0.39V73.17l-0.68.13-0.47.13a1.61,1.61,0,0,0-.32.14,1.16,1.16,0,0,0-.22.17,2,2,0,0,0-.32.41,1.05,1.05,0,0,0-.12.53,1,1,0,0,0,.07.4,0.76,0.76,0,0,0,.17.26,0.56,0.56,0,0,0,.22.13A0.71,0.71,0,0,0,188.82,75.5Z" transform="translate(-3.19 -1.51)"/><path class="cls-4" d="M202.48,76.72V76.09a3.57,3.57,0,0,0,.44-0.13l0.25-.12a0.34,0.34,0,0,0,.11-0.11,0.22,0.22,0,0,0,0-.1V72.2a4.33,4.33,0,0,0,0-.74,1.06,1.06,0,0,0-.14-0.41,0.41,0.41,0,0,0-.24-0.17,1.6,1.6,0,0,0-.35,0,2.22,2.22,0,0,0-.68.13,3.56,3.56,0,0,0-.87.45v4.18a0.19,0.19,0,0,0,0,.1,0.34,0.34,0,0,0,.13.1l0.28,0.12,0.48,0.14v0.63H198.1V76.09a3.57,3.57,0,0,0,.44-0.13l0.25-.12a0.33,0.33,0,0,0,.11-0.11,0.21,0.21,0,0,0,0-.1V72.2a6.08,6.08,0,0,0,0-.74,1.11,1.11,0,0,0-.11-0.41,0.35,0.35,0,0,0-.22-0.17,1.49,1.49,0,0,0-.34,0,2.31,2.31,0,0,0-.69.13,4.2,4.2,0,0,0-.93.46v4.18a0.33,0.33,0,0,0,.21.24,2.56,2.56,0,0,0,.71.23v0.63h-4V76.09a5.81,5.81,0,0,0,.75-0.23,0.31,0.31,0,0,0,.24-0.23V71.53c0-.2,0-0.36,0-0.48a0.42,0.42,0,0,0-.11-0.27,0.6,0.6,0,0,0-.3-0.14l-0.57-.09V69.94l0.78-.1,0.65-.11,0.59-.14,0.57-.18,0.34,0.34,0.08,0.68a7.69,7.69,0,0,1,.82-0.54,4.28,4.28,0,0,1,.68-0.31,3,3,0,0,1,.59-0.14,4.67,4.67,0,0,1,.55,0,2,2,0,0,1,.64.09,1.74,1.74,0,0,1,.46.23,1.33,1.33,0,0,1,.31.3,1.51,1.51,0,0,1,.18.33l0,0.08a8.08,8.08,0,0,1,.84-0.54,4.76,4.76,0,0,1,.69-0.31,3,3,0,0,1,.6-0.15,4.21,4.21,0,0,1,.56,0,2.24,2.24,0,0,1,.7.11,1.53,1.53,0,0,1,.59.35,1.7,1.7,0,0,1,.41.63,2.69,2.69,0,0,1,.15,1v4.17a0.31,0.31,0,0,0,.24.21,6.14,6.14,0,0,0,.84.26v0.63h-4Z" transform="translate(-3.19 -1.51)"/><path class="cls-4" d="M210.63,76.72V76.09a3.42,3.42,0,0,0,.77-0.23,0.37,0.37,0,0,0,.26-0.23V68l-1,.15-0.11-.78q0.83-.18,1.85-0.32a15.56,15.56,0,0,1,2.14-.14,8.24,8.24,0,0,1,1.84.18,3.72,3.72,0,0,1,1.22.49,1.92,1.92,0,0,1,.68.74,2,2,0,0,1,.21.91,2.82,2.82,0,0,1-.16,1,2.76,2.76,0,0,1-.43.79,3,3,0,0,1-.67.63,3.71,3.71,0,0,1-.87.44l2.44,3.19a2.34,2.34,0,0,0,.22.26,0.71,0.71,0,0,0,.23.15,0.93,0.93,0,0,0,.3.06l0.43,0,0.12,0.63-0.59.18-0.67.18-0.62.13a2.73,2.73,0,0,1-.43.05,0.85,0.85,0,0,1-.43-0.12,0.87,0.87,0,0,1-.32-0.3l-2.15-4.12H214.6l-0.4,0-0.41-.07v3.41a0.39,0.39,0,0,0,.24.23,2.82,2.82,0,0,0,.79.24v0.63h-4.19Zm3.52-9h-0.36V71.3l0.36,0h0.32a2.28,2.28,0,0,0,.83-0.13,1.41,1.41,0,0,0,.56-0.38,1.56,1.56,0,0,0,.32-0.6,2.88,2.88,0,0,0,.1-0.8,2.3,2.3,0,0,0-.09-0.63,1.21,1.21,0,0,0-.33-0.54,1.69,1.69,0,0,0-.66-0.37A3.45,3.45,0,0,0,214.15,67.76Z" transform="translate(-3.19 -1.51)"/><path class="cls-4" d="M227.22,73a3.54,3.54,0,0,1-.14,1,4.1,4.1,0,0,1-.39.92,4.2,4.2,0,0,1-.61.8,4.09,4.09,0,0,1-.78.64,3.81,3.81,0,0,1-.91.42,3.43,3.43,0,0,1-1,.15,3.76,3.76,0,0,1-1.46-.27,3.25,3.25,0,0,1-1.84-1.9,4,4,0,0,1-.25-1.44,3.93,3.93,0,0,1,.13-1,4.1,4.1,0,0,1,.36-0.93,3.9,3.9,0,0,1,.58-0.81,3.74,3.74,0,0,1,.77-0.64,3.86,3.86,0,0,1,.93-0.42,4,4,0,0,1,2.54.12,3.29,3.29,0,0,1,1.12.76,3.35,3.35,0,0,1,.72,1.15A4,4,0,0,1,227.22,73Zm-2.17.38a6.18,6.18,0,0,0-.1-1.15,3.94,3.94,0,0,0-.3-1,1.88,1.88,0,0,0-.5-0.66,1.06,1.06,0,0,0-.69-0.24,1.18,1.18,0,0,0-.72.21,1.4,1.4,0,0,0-.45.57,3.08,3.08,0,0,0-.23.87,8.4,8.4,0,0,0-.07,1.08,5,5,0,0,0,.12,1.12,3.52,3.52,0,0,0,.33.9,1.79,1.79,0,0,0,.5.6,1.05,1.05,0,0,0,.64.22,1.39,1.39,0,0,0,.71-0.16,1.14,1.14,0,0,0,.45-0.49,2.61,2.61,0,0,0,.23-0.8A7.87,7.87,0,0,0,225.05,73.41Z" transform="translate(-3.19 -1.51)"/><path class="cls-4" d="M233.22,74.56a2.31,2.31,0,0,1-.17.93,2.09,2.09,0,0,1-.43.65,2.12,2.12,0,0,1-.61.43,3.6,3.6,0,0,1-.69.24,4.39,4.39,0,0,1-.68.11l-0.57,0a5.07,5.07,0,0,1-.57,0,6.14,6.14,0,0,1-.62-0.1,5.29,5.29,0,0,1-.62-0.18,3.86,3.86,0,0,1-.55-0.24,0.41,0.41,0,0,1-.08-0.28,6,6,0,0,1,0-.61c0-.24,0-0.49,0-0.76a4.36,4.36,0,0,1,.12-0.71l0.71,0.08a3.13,3.13,0,0,0,.28.78,2.41,2.41,0,0,0,.42.58,1.75,1.75,0,0,0,.53.36,1.46,1.46,0,0,0,.6.13,1.48,1.48,0,0,0,.79-0.16,0.65,0.65,0,0,0,.24-0.58,1,1,0,0,0-.15-0.55,1.87,1.87,0,0,0-.4-0.46,3.7,3.7,0,0,0-.58-0.39l-0.68-.37q-0.32-.16-0.64-0.36a3.92,3.92,0,0,1-.58-0.44,2.15,2.15,0,0,1-.43-0.53,1.34,1.34,0,0,1-.16-0.66,1.55,1.55,0,0,1,.24-0.85,2.2,2.2,0,0,1,.65-0.65,3.3,3.3,0,0,1,.92-0.41,3.93,3.93,0,0,1,1.06-.14,6,6,0,0,1,.7,0,5.81,5.81,0,0,1,.66.12,4.18,4.18,0,0,1,.57.18,2,2,0,0,1,.45.24,0.41,0.41,0,0,1,0,.27,3.9,3.9,0,0,1-.1.53,6.05,6.05,0,0,1-.18.59,1.69,1.69,0,0,1-.21.43l-0.6-.06a2.3,2.3,0,0,0-.48-1.12,1.13,1.13,0,0,0-.9-0.4,1.1,1.1,0,0,0-.69.18,0.6,0.6,0,0,0-.24.5,0.81,0.81,0,0,0,.11.43,1.31,1.31,0,0,0,.34.35,4,4,0,0,0,.55.34l0.76,0.4L232,72.82a3.2,3.2,0,0,1,.6.44,2.12,2.12,0,0,1,.43.56A1.57,1.57,0,0,1,233.22,74.56Z" transform="translate(-3.19 -1.51)"/><path class="cls-4" d="M239.93,74.56a2.31,2.31,0,0,1-.17.93,2.09,2.09,0,0,1-.43.65,2.12,2.12,0,0,1-.61.43,3.6,3.6,0,0,1-.69.24,4.39,4.39,0,0,1-.68.11l-0.57,0a5.07,5.07,0,0,1-.57,0,6.14,6.14,0,0,1-.62-0.1,5.29,5.29,0,0,1-.62-0.18,3.86,3.86,0,0,1-.55-0.24,0.41,0.41,0,0,1-.08-0.28,6,6,0,0,1,0-.61c0-.24,0-0.49,0-0.76a4.36,4.36,0,0,1,.12-0.71l0.71,0.08a3.13,3.13,0,0,0,.28.78,2.41,2.41,0,0,0,.42.58,1.75,1.75,0,0,0,.53.36,1.46,1.46,0,0,0,.6.13,1.48,1.48,0,0,0,.79-0.16,0.65,0.65,0,0,0,.24-0.58,1,1,0,0,0-.15-0.55,1.87,1.87,0,0,0-.4-0.46,3.7,3.7,0,0,0-.58-0.39l-0.68-.37q-0.32-.16-0.64-0.36a3.92,3.92,0,0,1-.58-0.44,2.15,2.15,0,0,1-.43-0.53,1.34,1.34,0,0,1-.16-0.66,1.55,1.55,0,0,1,.24-0.85,2.2,2.2,0,0,1,.65-0.65,3.3,3.3,0,0,1,.92-0.41,3.93,3.93,0,0,1,1.06-.14,6,6,0,0,1,.7,0,5.81,5.81,0,0,1,.66.12,4.18,4.18,0,0,1,.57.18,2,2,0,0,1,.45.24,0.41,0.41,0,0,1,0,.27,3.9,3.9,0,0,1-.1.53,6.05,6.05,0,0,1-.18.59,1.69,1.69,0,0,1-.21.43l-0.6-.06a2.3,2.3,0,0,0-.48-1.12,1.13,1.13,0,0,0-.9-0.4,1.1,1.1,0,0,0-.69.18,0.6,0.6,0,0,0-.24.5,0.81,0.81,0,0,0,.11.43,1.31,1.31,0,0,0,.34.35,4,4,0,0,0,.55.34l0.76,0.4,0.66,0.36a3.2,3.2,0,0,1,.6.44,2.12,2.12,0,0,1,.43.56A1.57,1.57,0,0,1,239.93,74.56Z" transform="translate(-3.19 -1.51)"/><path class="cls-4" d="M245,76.72V76.09a3.41,3.41,0,0,0,.77-0.23,0.37,0.37,0,0,0,.26-0.23v-7.4a0.4,0.4,0,0,0-.24-0.23,2.76,2.76,0,0,0-.79-0.24V67.12h4.19v0.63a3.21,3.21,0,0,0-.77.24,0.37,0.37,0,0,0-.26.24v7.4a0.39,0.39,0,0,0,.24.23,2.87,2.87,0,0,0,.79.24v0.63H245Z" transform="translate(-3.19 -1.51)"/><path class="cls-4" d="M250.23,76.72V76.09a3.41,3.41,0,0,0,.77-0.23,0.37,0.37,0,0,0,.26-0.23v-7.4A0.4,0.4,0,0,0,251,68a2.76,2.76,0,0,0-.79-0.24V67.12h4.19v0.63a3.21,3.21,0,0,0-.77.24,0.37,0.37,0,0,0-.26.24v7.4a0.39,0.39,0,0,0,.24.23,2.87,2.87,0,0,0,.79.24v0.63h-4.19Z" transform="translate(-3.19 -1.51)"/><path class="cls-4" d="M255.49,76.72V76.09a3.41,3.41,0,0,0,.77-0.23,0.37,0.37,0,0,0,.26-0.23v-7.4a0.4,0.4,0,0,0-.24-0.23,2.76,2.76,0,0,0-.79-0.24V67.12h4.19v0.63a3.21,3.21,0,0,0-.77.24,0.37,0.37,0,0,0-.26.24v7.4a0.39,0.39,0,0,0,.24.23,2.87,2.87,0,0,0,.79.24v0.63h-4.19Z" transform="translate(-3.19 -1.51)"/><path class="cls-4" d="M263.56,76.19a2.68,2.68,0,0,1-.19,1,5.06,5.06,0,0,1-.52,1,6.29,6.29,0,0,1-.76.93,5,5,0,0,1-.92.74l-0.57-.42a4.59,4.59,0,0,0,.69-1.06,2.86,2.86,0,0,0,.26-1.23,0.81,0.81,0,0,0-.08-0.34,1,1,0,0,0-.22-0.31,1,1,0,0,0-.79-0.28l-0.12-.66a0.67,0.67,0,0,1,.2-0.14l0.38-.18,0.49-.19,0.52-.17,0.48-.12a1.56,1.56,0,0,1,.37,0,1.34,1.34,0,0,1,.33.21,1,1,0,0,1,.24.3,1.66,1.66,0,0,1,.15.43A2.73,2.73,0,0,1,263.56,76.19Z" transform="translate(-3.19 -1.51)"/><path class="cls-4" d="M276.38,72.27a5.9,5.9,0,0,1-.17,1.47,4.4,4.4,0,0,1-.46,1.15,3.41,3.41,0,0,1-.69.84,3.78,3.78,0,0,1-.84.57,4,4,0,0,1-.94.32,4.57,4.57,0,0,1-1,.1h-3.95V76.17a3,3,0,0,0,.67-0.2,0.32,0.32,0,0,0,.22-0.2V69.16l-0.89.13-0.09-.67c0.22-.05.49-0.1,0.8-0.15l1-.13,1-.09,1,0a5.73,5.73,0,0,1,1.85.27,3.65,3.65,0,0,1,1.35.79,3.34,3.34,0,0,1,.83,1.27A4.8,4.8,0,0,1,276.38,72.27ZM271.57,69h-0.45v6.49a1.51,1.51,0,0,0,0,.2,0.24,0.24,0,0,0,.1.16,0.7,0.7,0,0,0,.28.1,3.05,3.05,0,0,0,.54,0,1.83,1.83,0,0,0,.77-0.19,2.23,2.23,0,0,0,.76-0.61,3.45,3.45,0,0,0,.58-1.07,4.71,4.71,0,0,0,.23-1.58,4.18,4.18,0,0,0-.72-2.66A2.55,2.55,0,0,0,271.57,69Z" transform="translate(-3.19 -1.51)"/><path class="cls-4" d="M287.32,69a1.93,1.93,0,0,0-.37,0l-0.45.12,0.07,6.65a0.36,0.36,0,0,0,.24.19,3.09,3.09,0,0,0,.72.21v0.55h-3.59V76.17a3.84,3.84,0,0,0,.7-0.2,0.35,0.35,0,0,0,.25-0.2l-0.05-5.1-2.76,6h-0.72l-2.68-6-0.05,5.08a0.33,0.33,0,0,0,.21.19,2.47,2.47,0,0,0,.68.21v0.55h-2.8V76.17a2.91,2.91,0,0,0,.67-0.2,0.32,0.32,0,0,0,.22-0.2l0.07-6.59A1.64,1.64,0,0,0,277.2,69a2.15,2.15,0,0,0-.43,0V68.41h2.41l0.12,0a0.26,0.26,0,0,1,.11.08,1,1,0,0,1,.12.17c0,0.07.09,0.17,0.14,0.29L282,74.33,284.49,69a3.09,3.09,0,0,1,.15-0.31,0.83,0.83,0,0,1,.12-0.16,0.24,0.24,0,0,1,.11-0.07h2.46V69Z" transform="translate(-3.19 -1.51)"/><path class="cls-4" d="M296.25,72.27a5.9,5.9,0,0,1-.17,1.47,4.4,4.4,0,0,1-.46,1.15,3.41,3.41,0,0,1-.69.84,3.78,3.78,0,0,1-.84.57,4,4,0,0,1-.94.32,4.57,4.57,0,0,1-1,.1h-3.95V76.17a3,3,0,0,0,.67-0.2,0.32,0.32,0,0,0,.22-0.2V69.16l-0.89.13-0.09-.67c0.22-.05.49-0.1,0.8-0.15l1-.13,1-.09,1,0a5.73,5.73,0,0,1,1.85.27,3.65,3.65,0,0,1,1.35.79,3.34,3.34,0,0,1,.83,1.27A4.8,4.8,0,0,1,296.25,72.27ZM291.44,69H291v6.49a1.51,1.51,0,0,0,0,.2,0.24,0.24,0,0,0,.1.16,0.7,0.7,0,0,0,.28.1,3.05,3.05,0,0,0,.54,0,1.83,1.83,0,0,0,.77-0.19,2.23,2.23,0,0,0,.76-0.61,3.45,3.45,0,0,0,.58-1.07,4.71,4.71,0,0,0,.23-1.58,4.18,4.18,0,0,0-.72-2.66A2.55,2.55,0,0,0,291.44,69Z" transform="translate(-3.19 -1.51)"/></svg>