<svg id="citysearch" xmlns="http://www.w3.org/2000/svg" viewBox="0 0 48 48"><defs><style>.cls-1{fill:#29abe2;}.cls-2{fill:#fff;}</style></defs><title>citysearch_round</title><circle class="cls-1" cx="24" cy="24" r="24"/><path class="cls-2" d="M24.13,8.3a15.66,15.66,0,0,0-6,1.18l1.76,4.38a11,11,0,1,1-6,6.16L9.51,18.28A15.71,15.71,0,1,0,24.13,8.3Z" transform="translate(0 0)"/><path class="cls-2" d="M24.13,16.13a7.85,7.85,0,0,0-3,.6L24.05,24,16.8,21.15A7.87,7.87,0,1,0,24.13,16.13Z" transform="translate(0 0)"/><polygon class="cls-2" points="6.19 15.22 21.17 21.14 15.11 6.23 13.26 13.13 6.19 15.22"/><rect class="cls-2" x="11.15" y="5.9" width="0.8" height="11.14" transform="translate(-4.73 11.53) rotate(-45)"/></svg>